<svg id="Layer_1" data-name="Layer 1" xmlns="http://www.w3.org/2000/svg" viewBox="0 0 48 48"><defs><style>.cls-1{fill:#fff;}.cls-2,.cls-3{fill:#0072c6;}.cls-3{fill-rule:evenodd;}</style></defs><title>Outlook_48x1</title><g id="_48" data-name="48"><rect class="cls-1" x="23" y="13" width="21" height="22" rx="1" ry="1"/><path class="cls-2" d="M43,14V34H24V14H43m0-2H24a2,2,0,0,0-2,2V34a2,2,0,0,0,2,2H43a2,2,0,0,0,2-2V14a2,2,0,0,0-2-2Z"/><path class="cls-3" d="M32.33,26.34,19,13.82V13h2L32.94,24.21a.16.16,0,0,0,.22,0L44,14v2.71l-10.22,9.6A1.08,1.08,0,0,1,32.33,26.34Z"/><path class="cls-3" d="M28,3,3,7.38V40.62L28,45Z"/><path class="cls-1" d="M14.65,28.8a3.26,3.26,0,0,1-.74-.11,2.9,2.9,0,0,1-.66-.27,3.08,3.08,0,0,1-.59-.43,3.84,3.84,0,0,1-.51-.59,4.65,4.65,0,0,1-.44-.78,5.69,5.69,0,0,1-.32-.91,7.51,7.51,0,0,1-.19-1,10.23,10.23,0,0,1-.06-1.16,10,10,0,0,1,.06-1.09,7.62,7.62,0,0,1,.17-1,6.08,6.08,0,0,1,.29-.88,5.09,5.09,0,0,1,.4-.78,3.94,3.94,0,0,1,.53-.67,3.13,3.13,0,0,1,.62-.49,3,3,0,0,1,.72-.31,3.43,3.43,0,0,1,.81-.12,3.29,3.29,0,0,1,.77.06,2.74,2.74,0,0,1,.69.24,2.79,2.79,0,0,1,.61.42,3.47,3.47,0,0,1,.53.6,4.42,4.42,0,0,1,.44.79,5.87,5.87,0,0,1,.32.94,8.17,8.17,0,0,1,.19,1.1,11.56,11.56,0,0,1,.06,1.25,10.47,10.47,0,0,1-.07,1.22,7.42,7.42,0,0,1-.2,1.07,5.41,5.41,0,0,1-.34.92,4.2,4.2,0,0,1-.47.77,3.5,3.5,0,0,1-.54.56,2.88,2.88,0,0,1-1.31.61,3.44,3.44,0,0,1-.76.05M14.82,15a7.66,7.66,0,0,0-1.54.24,6.37,6.37,0,0,0-1.35.53,6.18,6.18,0,0,0-1.17.81,7,7,0,0,0-1,1.08A8,8,0,0,0,9,18.94a8.78,8.78,0,0,0-.55,1.43A10.55,10.55,0,0,0,8.11,22,13.51,13.51,0,0,0,8,23.71a12.24,12.24,0,0,0,.11,1.69,9.64,9.64,0,0,0,.34,1.53A8.23,8.23,0,0,0,9,28.29a7.69,7.69,0,0,0,.8,1.22,7,7,0,0,0,1,1,6.07,6.07,0,0,0,2.39,1.24,7.21,7.21,0,0,0,1.43.22,7.3,7.3,0,0,0,1.5-.06,6.12,6.12,0,0,0,1.38-.37,6,6,0,0,0,1.26-.69,6.86,6.86,0,0,0,1.12-1,7.5,7.5,0,0,0,.93-1.29A8.33,8.33,0,0,0,21.45,27a10.22,10.22,0,0,0,.4-1.73A13.32,13.32,0,0,0,22,23.38a13.1,13.1,0,0,0-.13-1.89,10,10,0,0,0-.39-1.68,8.13,8.13,0,0,0-.65-1.47,7.27,7.27,0,0,0-.89-1.25,6.59,6.59,0,0,0-1.08-1,5.77,5.77,0,0,0-1.22-.67,6,6,0,0,0-1.34-.36A7.11,7.11,0,0,0,14.82,15"/></g></svg>